<svg xmlns="http://www.w3.org/2000/svg" xmlns:xlink="http://www.w3.org/1999/xlink" width="284.976" height="44" viewBox="0 0 284.976 44">
  <defs>
    <linearGradient id="linear-gradient" x1="0.915" y1="0.619" x2="-0.386" y2="-0.051" gradientUnits="objectBoundingBox">
      <stop offset="0" stop-color="#00a0ff"/>
      <stop offset="0.01" stop-color="#00a1ff"/>
      <stop offset="0.26" stop-color="#00beff"/>
      <stop offset="0.51" stop-color="#00d2ff"/>
      <stop offset="0.76" stop-color="#00dfff"/>
      <stop offset="1" stop-color="#00e3ff"/>
    </linearGradient>
    <linearGradient id="linear-gradient-2" x1="1.077" y1="-0.471" x2="-1.306" y2="-0.471" gradientUnits="objectBoundingBox">
      <stop offset="0" stop-color="#ffe000"/>
      <stop offset="0.41" stop-color="#ffbd00"/>
      <stop offset="0.78" stop-color="orange"/>
      <stop offset="1" stop-color="#ff9c00"/>
    </linearGradient>
    <linearGradient id="linear-gradient-3" x1="0.863" y1="-0.824" x2="-0.502" y2="-2.593" gradientUnits="objectBoundingBox">
      <stop offset="0" stop-color="#ff3a44"/>
      <stop offset="1" stop-color="#c31162"/>
    </linearGradient>
    <linearGradient id="linear-gradient-4" x1="-0.188" y1="1.894" x2="0.421" y2="1.105" gradientUnits="objectBoundingBox">
      <stop offset="0" stop-color="#32a071"/>
      <stop offset="0.07" stop-color="#2da771"/>
      <stop offset="0.48" stop-color="#15cf74"/>
      <stop offset="0.8" stop-color="#06e775"/>
      <stop offset="1" stop-color="#00f076"/>
    </linearGradient>
  </defs>
  <g id="Group_11495" data-name="Group 11495" transform="translate(-140 -5972)">
    <g id="Page-1" transform="translate(140 5972)">
      <g id="Artboard-1">
        <g id="App-Store">
          <path id="background" d="M4.28,0H123.7a5.284,5.284,0,0,1,5.28,5.28V38.72A5.284,5.284,0,0,1,123.7,44H4.28A5.284,5.284,0,0,1-1,38.72V5.28A5.284,5.284,0,0,1,4.28,0Z" transform="translate(1)" fill="#fff"/>
          <g id="icon" transform="translate(11.526 7.744)">
            <path id="Fill-2" d="M16.9,75.511a5.674,5.674,0,0,1,2.693-4.752,5.836,5.836,0,0,0-4.567-2.473c-1.918-.2-3.784,1.153-4.761,1.153-.994,0-2.508-1.126-4.127-1.1a6.068,6.068,0,0,0-5.113,3.124c-2.209,3.828-.563,9.46,1.558,12.558,1.065,1.514,2.3,3.212,3.925,3.15,1.584-.062,2.182-1.012,4.092-1.012s2.455,1.012,4.11.977c1.707-.026,2.772-1.522,3.8-3.054a12.413,12.413,0,0,0,1.734-3.538A5.488,5.488,0,0,1,16.9,75.511" transform="translate(0.023 -62.258)"/>
            <path id="Fill-3" d="M118.122,4A5.583,5.583,0,0,0,119.4,0a5.661,5.661,0,0,0-3.67,1.9,5.354,5.354,0,0,0-1.311,3.846A4.69,4.69,0,0,0,118.122,4" transform="translate(-104.322)"/>
          </g>
          <g id="Group_11401" data-name="Group 11401" transform="translate(40.471 19.254)">
            <path id="Fill-4" d="M10.865,15.9H8.647L7.433,12.078H3.209L2.056,15.9H-.1l4.18-13H6.667l4.2,13ZM7.072,10.477l-1.1-3.388c-.114-.352-.334-1.162-.651-2.446H5.277c-.132.554-.334,1.373-.616,2.446L3.578,10.477Z" transform="translate(0.1 -2.715)"/>
            <path id="Fill-5" d="M153.029,46.67a5.279,5.279,0,0,1-1.3,3.775,3.794,3.794,0,0,1-2.886,1.232,2.891,2.891,0,0,1-2.675-1.329v4.919h-2.086V45.174c0-1-.026-2.024-.079-3.08h1.83l.114,1.487h.035a3.7,3.7,0,0,1,5.922-.37A5.1,5.1,0,0,1,153.029,46.67Zm-2.121.07a3.826,3.826,0,0,0-.616-2.253,2.133,2.133,0,0,0-1.813-.924,2.212,2.212,0,0,0-1.4.51,2.357,2.357,0,0,0-.818,1.338,2.849,2.849,0,0,0-.1.634v1.566a2.519,2.519,0,0,0,.625,1.725,2.079,2.079,0,0,0,1.628.7,2.148,2.148,0,0,0,1.83-.906A3.975,3.975,0,0,0,150.908,46.74Z" transform="translate(-131.319 -38.283)"/>
            <path id="Fill-6" d="M275.429,46.67a5.278,5.278,0,0,1-1.3,3.775,3.794,3.794,0,0,1-2.886,1.232,2.89,2.89,0,0,1-2.675-1.329v4.919h-2.086V45.174c0-1-.026-2.024-.079-3.08h1.83l.114,1.487h.035a3.7,3.7,0,0,1,5.922-.37A5.1,5.1,0,0,1,275.429,46.67Zm-2.121.07a3.826,3.826,0,0,0-.616-2.253,2.133,2.133,0,0,0-1.813-.924,2.211,2.211,0,0,0-1.4.51,2.4,2.4,0,0,0-.818,1.338,2.85,2.85,0,0,0-.1.634v1.566a2.52,2.52,0,0,0,.625,1.725,2.079,2.079,0,0,0,1.628.7,2.137,2.137,0,0,0,1.83-.906A3.916,3.916,0,0,0,273.308,46.74Z" transform="translate(-242.948 -38.283)"/>
            <path id="Fill-7" d="M422.552,10.339a3.48,3.48,0,0,1-1.153,2.7,5.117,5.117,0,0,1-3.538,1.135,6.19,6.19,0,0,1-3.362-.81l.484-1.734a5.845,5.845,0,0,0,3.01.81,2.834,2.834,0,0,0,1.83-.528,1.725,1.725,0,0,0,.66-1.417,1.833,1.833,0,0,0-.537-1.329,5.024,5.024,0,0,0-1.8-1c-2.3-.854-3.432-2.094-3.432-3.722a3.3,3.3,0,0,1,1.206-2.622A4.782,4.782,0,0,1,419.12.8a6.28,6.28,0,0,1,2.948.616l-.528,1.69a5.194,5.194,0,0,0-2.5-.6,2.593,2.593,0,0,0-1.725.537,1.561,1.561,0,0,0-.519,1.179,1.58,1.58,0,0,0,.6,1.267,6.714,6.714,0,0,0,1.892,1,6.344,6.344,0,0,1,2.464,1.584,3.293,3.293,0,0,1,.8,2.262" transform="translate(-378.015 -0.8)"/>
            <path id="Fill-8" d="M525.3,21.5h-2.3v4.55c0,1.153.4,1.734,1.214,1.734a3.862,3.862,0,0,0,.924-.1l.062,1.584a4.829,4.829,0,0,1-1.619.229,2.492,2.492,0,0,1-1.927-.757,3.673,3.673,0,0,1-.7-2.526V21.49H519.6V19.932h1.364V18.216l2.042-.616v2.332h2.3V21.5" transform="translate(-473.866 -16.122)"/>
            <path id="Fill-9" d="M606.678,46.8a5.147,5.147,0,0,1-1.232,3.546,4.41,4.41,0,0,1-3.432,1.426,4.224,4.224,0,0,1-3.291-1.364,4.955,4.955,0,0,1-1.223-3.45,5.111,5.111,0,0,1,1.258-3.564A4.392,4.392,0,0,1,602.164,42a4.283,4.283,0,0,1,3.318,1.373A4.892,4.892,0,0,1,606.678,46.8Zm-2.156.044a4.2,4.2,0,0,0-.554-2.209,2.16,2.16,0,0,0-3.784,0,4.765,4.765,0,0,0,0,4.462,2.137,2.137,0,0,0,3.766-.018A4.263,4.263,0,0,0,604.522,46.84Z" transform="translate(-544.911 -38.374)"/>
            <path id="Fill-10" d="M726.725,43.924a3.858,3.858,0,0,0-.66-.053,1.965,1.965,0,0,0-1.7.827,3.139,3.139,0,0,0-.519,1.848v4.919h-2.086V45.042c0-1.082-.018-2.068-.062-2.948h1.813l.079,1.8h.062a3.194,3.194,0,0,1,1.038-1.487,2.533,2.533,0,0,1,1.5-.5,4.38,4.38,0,0,1,.519.035l.009,1.989" transform="translate(-658.182 -38.283)"/>
            <path id="Fill-11" d="M798.234,46.062a4.761,4.761,0,0,1-.079.942h-6.248a2.717,2.717,0,0,0,.906,2.121,3.12,3.12,0,0,0,2.042.651,7.01,7.01,0,0,0,2.526-.44l.326,1.443a7.82,7.82,0,0,1-3.142.581,4.552,4.552,0,0,1-3.423-1.285,4.744,4.744,0,0,1-1.241-3.441,5.377,5.377,0,0,1,1.162-3.529,3.987,3.987,0,0,1,3.274-1.5,3.478,3.478,0,0,1,3.062,1.5,5.09,5.09,0,0,1,.836,2.957Zm-1.989-.537a2.806,2.806,0,0,0-.4-1.6,1.817,1.817,0,0,0-1.654-.871,1.978,1.978,0,0,0-1.654.845,3.131,3.131,0,0,0-.616,1.619Z" transform="translate(-720.38 -38.01)"/>
          </g>
          <g id="Available-on-the" transform="translate(41.246 8.07)">
            <path id="Fill-12" d="M5.094,10.889H4L3.4,9.014H1.328L.756,10.889H-.3L1.75,4.5H3.018ZM3.22,8.222,2.683,6.55c-.053-.167-.158-.572-.326-1.206H2.34c-.07.273-.158.669-.308,1.206L1.5,8.222Z" transform="translate(0.3 -4.166)"/>
            <path id="Fill-13" d="M73.526,24.7l-1.742,4.611H70.79L69.1,24.7h1.1l.783,2.438c.132.4.246.792.334,1.162h.026c.079-.334.194-.722.334-1.162l.774-2.438h1.074" transform="translate(-62.993 -22.588)"/>
            <path id="Fill-14" d="M131.96,28.49l-.079-.528h-.026a1.584,1.584,0,0,1-1.346.634,1.337,1.337,0,0,1-1.408-1.355c0-1.135.986-1.725,2.693-1.725v-.088c0-.607-.326-.906-.959-.906a2.149,2.149,0,0,0-1.206.343l-.211-.669A2.958,2.958,0,0,1,131,23.8c1.206,0,1.813.634,1.813,1.91v1.7a6.134,6.134,0,0,0,.07,1.1Zm-.141-2.3c-1.135,0-1.707.273-1.707.933a.653.653,0,0,0,.7.722.979.979,0,0,0,1-.942Z" transform="translate(-117.713 -21.767)"/>
            <path id="Fill-15" d="M190.907,3.423a.612.612,0,1,1,.642-.616A.6.6,0,0,1,190.907,3.423Zm-.493.757h1.021v4.6h-1.021Z" transform="translate(-173.527 -2.068)"/>
            <path id="Fill-16" d="M223.9.7h1.021V7.414H223.9Z" transform="translate(-204.17 -0.7)"/>
            <path id="Fill-17" d="M255.26,28.4l-.079-.528h-.026a1.584,1.584,0,0,1-1.346.634A1.337,1.337,0,0,1,252.4,27.15c0-1.135.986-1.725,2.693-1.725v-.088c0-.607-.326-.906-.959-.906a2.149,2.149,0,0,0-1.206.343l-.211-.678a2.958,2.958,0,0,1,1.584-.4c1.206,0,1.813.634,1.813,1.91v1.7a7.283,7.283,0,0,0,.062,1.1h-.915Zm-.141-2.3c-1.135,0-1.707.273-1.707.933a.653.653,0,0,0,.7.722.979.979,0,0,0,1-.942Z" transform="translate(-230.162 -21.676)"/>
            <path id="Fill-18" d="M316.9,7.529a1.568,1.568,0,0,1-1.452-.818h-.018l-.062.713H314.5c.026-.37.035-.783.035-1.241V.7h1.03V3.49h.018a1.583,1.583,0,0,1,1.47-.766c1.109,0,1.883.95,1.883,2.332A2.218,2.218,0,0,1,316.9,7.529Zm-.211-4a1.175,1.175,0,0,0-1.126,1.223v.81a1.125,1.125,0,0,0,1.109,1.153c.766,0,1.223-.625,1.223-1.619,0-.933-.475-1.566-1.206-1.566Z" transform="translate(-286.798 -0.7)"/>
            <path id="Fill-19" d="M382.1.7h1.021V7.414H382.1Z" transform="translate(-348.449 -0.7)"/>
            <path id="Fill-20" d="M414.957,26.158h-3.071a1.322,1.322,0,0,0,1.452,1.364,3.461,3.461,0,0,0,1.241-.22l.158.713a3.732,3.732,0,0,1-1.54.282,2.138,2.138,0,0,1-2.3-2.323,2.25,2.25,0,0,1,2.182-2.473A1.94,1.94,0,0,1,415,25.691a1.783,1.783,0,0,1-.044.466Zm-.933-.73c0-.713-.361-1.214-1.012-1.214a1.214,1.214,0,0,0-1.118,1.214Z" transform="translate(-374.714 -21.494)"/>
            <path id="Fill-21" d="M504.518,28.5a2.19,2.19,0,0,1-2.218-2.367,2.242,2.242,0,0,1,2.3-2.438,2.174,2.174,0,0,1,2.218,2.358A2.259,2.259,0,0,1,504.518,28.5Zm.044-4.057c-.739,0-1.214.7-1.214,1.654s.484,1.637,1.206,1.637,1.206-.739,1.206-1.663S505.283,24.448,504.562,24.448Z" transform="translate(-458.071 -21.676)"/>
            <path id="Fill-22" d="M574.331,28.308H573.31V25.659c0-.818-.317-1.223-.933-1.223a1.059,1.059,0,0,0-1.021,1.126V28.3h-1.021V25.017c0-.4-.009-.845-.035-1.32h.9l.044.713h.026a1.657,1.657,0,0,1,1.461-.81c.968,0,1.6.739,1.6,1.945v2.763" transform="translate(-520.087 -21.585)"/>
            <path id="Fill-23" d="M663.29,13.618h-1.126v2.235c0,.572.2.854.6.854a2.238,2.238,0,0,0,.458-.044l.026.774a2.218,2.218,0,0,1-.792.114c-.81,0-1.285-.449-1.285-1.61V13.618H660.5v-.766h.669v-.845l1-.308v1.144H663.3v.774" transform="translate(-602.35 -10.732)"/>
            <path id="Fill-24" d="M712.4,7.423h-1.021V4.792c0-.827-.317-1.241-.933-1.241a1,1,0,0,0-1.021,1.091V7.414H708.4V.7h1.021V3.463h.018a1.548,1.548,0,0,1,1.382-.748c.977,0,1.575.757,1.575,1.962V7.423" transform="translate(-646.035 -0.7)"/>
            <path id="Fill-25" d="M771.157,26.158h-3.071a1.322,1.322,0,0,0,1.452,1.364,3.462,3.462,0,0,0,1.241-.22l.158.713a3.732,3.732,0,0,1-1.54.282,2.138,2.138,0,0,1-2.3-2.323,2.25,2.25,0,0,1,2.182-2.473,1.94,1.94,0,0,1,1.918,2.191A1.783,1.783,0,0,1,771.157,26.158Zm-.933-.73c0-.713-.361-1.214-1.012-1.214a1.207,1.207,0,0,0-1.118,1.214Z" transform="translate(-699.569 -21.494)"/>
          </g>
        </g>
      </g>
    </g>
    <g id="Group_11403" data-name="Group 11403" transform="translate(-1150.024 2892.116)">
      <rect id="Rectangle_13912" data-name="Rectangle 13912" width="148" height="44" rx="5" transform="translate(1427 3079.884)" fill="#fff"/>
      <g id="Group_11405" data-name="Group 11405">
        <path id="Path_11793" data-name="Path 11793" d="M47.975,10.548a2.968,2.968,0,0,1-.819,2.183,3.165,3.165,0,0,1-2.4.96,3.373,3.373,0,0,1-3.4-3.4,3.274,3.274,0,0,1,.993-2.434A3.449,3.449,0,0,1,46.1,7.143a2.772,2.772,0,0,1,1.026.731l-.578.578a2.183,2.183,0,0,0-1.79-.786,2.532,2.532,0,0,0-2.543,2.619,2.576,2.576,0,0,0,4.365,1.888,2.106,2.106,0,0,0,.557-1.331H44.755v-.786h3.176A4.091,4.091,0,0,1,47.975,10.548Z" transform="translate(1431.056 3080.858)" fill="#0c0c0c"/>
        <path id="Path_11794" data-name="Path 11794" d="M52.318,7.808H49.371V9.881h2.685v.786H49.371V12.74h2.947v.808h-3.8V7h3.8Z" transform="translate(1431.711 3080.87)" fill="#0c0c0c"/>
        <path id="Path_11795" data-name="Path 11795" d="M55.5,13.548h-.84V7.808H52.83V7h4.551v.808H55.5Z" transform="translate(1432.105 3080.87)" fill="#0c0c0c"/>
        <path id="Path_11796" data-name="Path 11796" d="M59.94,13.548V7h.84v6.548Z" transform="translate(1432.754 3080.87)" fill="#0c0c0c"/>
        <path id="Path_11797" data-name="Path 11797" d="M64.354,13.548h-.84V7.808H61.68V7h4.5v.808H64.354Z" transform="translate(1432.913 3080.87)" fill="#0c0c0c"/>
        <path id="Path_11798" data-name="Path 11798" d="M74.092,12.709a3.394,3.394,0,0,1-4.8,0,3.274,3.274,0,0,1-.96-2.423,3.274,3.274,0,0,1,.96-2.423,3.2,3.2,0,0,1,2.4-.993,3.274,3.274,0,0,1,2.4.993,3.35,3.35,0,0,1,.96,2.423,3.274,3.274,0,0,1-.96,2.423Zm-4.18-.546a2.5,2.5,0,0,0,3.558,0,2.576,2.576,0,0,0,.731-1.877,2.576,2.576,0,0,0-.775-1.877,2.5,2.5,0,0,0-3.558,0,2.576,2.576,0,0,0-.688,1.877,2.576,2.576,0,0,0,.731,1.877Z" transform="translate(1433.521 3080.858)" fill="#0c0c0c"/>
        <path id="Path_11799" data-name="Path 11799" d="M75.58,13.548V7h1.015l3.187,5.1h0V7h.84v6.548h-.873L76.42,8.211h0v5.337Z" transform="translate(1434.183 3080.87)" fill="#0c0c0c"/>
      </g>
      <path id="Path_11800" data-name="Path 11800" d="M70.631,22.18a4.649,4.649,0,1,0,4.66,4.638,4.573,4.573,0,0,0-4.66-4.638Zm0,7.454a2.816,2.816,0,1,1,2.619-2.816,2.685,2.685,0,0,1-2.619,2.816ZM60.459,22.18a4.649,4.649,0,1,0,4.66,4.638,4.573,4.573,0,0,0-4.66-4.638Zm0,7.454a2.816,2.816,0,1,1,2.619-2.816,2.685,2.685,0,0,1-2.619,2.816ZM48.367,23.609v1.964h4.715a4.114,4.114,0,0,1-1.091,2.477,4.824,4.824,0,0,1-3.645,1.441,5.238,5.238,0,0,1,0-10.477,5.064,5.064,0,0,1,3.58,1.408l1.386-1.386a6.875,6.875,0,0,0-4.944-1.986,7.214,7.214,0,1,0,0,14.417A6.624,6.624,0,0,0,53.4,29.448a6.548,6.548,0,0,0,1.7-4.616,6.843,6.843,0,0,0-.1-1.222Zm49.449,1.528a4.288,4.288,0,0,0-8.338,1.681A4.616,4.616,0,0,0,97.947,29.4l-1.582-1.091a2.63,2.63,0,0,1-2.281,1.277,2.346,2.346,0,0,1-2.248-1.408l6.21-2.565Zm-6.33,1.55a2.543,2.543,0,0,1,2.434-2.707,1.79,1.79,0,0,1,1.713.982Zm-5.042,4.5h2.041V17.542H86.444ZM83.1,23.217h-.076a3.209,3.209,0,0,0-2.445-1.037,4.649,4.649,0,0,0,0,9.287,3.143,3.143,0,0,0,2.445-1.091H83.1v.666c0,1.779-.949,2.728-2.477,2.728a2.576,2.576,0,0,1-2.346-1.648l-1.768.731a4.365,4.365,0,0,0,4.114,2.75c2.39,0,4.365-1.408,4.365-4.835V22.453H83.1Zm-2.346,6.417a2.816,2.816,0,0,1,0-5.62,2.608,2.608,0,0,1,2.488,2.8,2.6,2.6,0,0,1-2.488,2.816Zm26.618-12.092h-4.889V31.183h2.041V26.01h2.848a4.245,4.245,0,1,0,0-8.469Zm0,6.548h-2.848V19.441h2.892a2.335,2.335,0,1,1,0,4.671Zm12.594-1.954a3.809,3.809,0,0,0-3.634,2.084l1.8.753A1.943,1.943,0,0,1,120,23.981a1.964,1.964,0,0,1,2.183,1.757v.131a4.562,4.562,0,0,0-2.128-.524c-1.943,0-3.929,1.091-3.929,3.078a3.154,3.154,0,0,0,3.394,3,2.892,2.892,0,0,0,2.6-1.331h.065v1.091h1.964V25.934c0-2.39-1.812-3.776-4.136-3.776Zm-.251,7.476c-.666,0-1.593-.338-1.593-1.157,0-1.091,1.157-1.462,2.183-1.462a3.623,3.623,0,0,1,1.855.458,2.466,2.466,0,0,1-2.4,2.183Zm11.59-7.159-2.335,5.915h-.065l-2.423-5.915H124.3l3.634,8.272-2.074,4.595h2.183l5.533-12.867Zm-18.335,8.731H115V17.542h-2.03Z" transform="translate(1431.013 3081.788)" fill="#0c0c0c"/>
      <path id="Path_11801" data-name="Path 11801" d="M10.481,7.546A2.183,2.183,0,0,0,10,9.074V33.215a2.117,2.117,0,0,0,.513,1.528l.076.087L24.079,21.308v-.327L10.557,7.47Z" transform="translate(1428.192 3080.913)" fill="url(#linear-gradient)"/>
      <path id="Path_11802" data-name="Path 11802" d="M27.375,25.062,22.9,20.555v-.327l4.475-4.507.1.065,5.359,3.034c1.528.862,1.528,2.281,0,3.154l-5.337,3.034Z" transform="translate(1429.371 3081.666)" fill="url(#linear-gradient-2)"/>
      <path id="Path_11803" data-name="Path 11803" d="M28.644,24.616,24.038,20,10.44,33.6a1.768,1.768,0,0,0,2.259.076l15.945-9.058" transform="translate(1428.233 3082.057)" fill="url(#linear-gradient-3)"/>
      <path id="Path_11804" data-name="Path 11804" d="M28.644,16.57,12.7,7.512a1.757,1.757,0,0,0-2.259.065l13.6,13.6Z" transform="translate(1428.233 3080.882)" fill="url(#linear-gradient-4)"/>
      <path id="Path_11805" data-name="Path 11805" d="M28.513,24.13l-15.814,9a1.812,1.812,0,0,1-2.183,0h0l-.076.076h0l.076.087h0a1.812,1.812,0,0,0,2.183,0l15.945-9.058Z" transform="translate(1428.233 3082.435)" opacity="0.2"/>
      <path id="Path_11806" data-name="Path 11806" d="M10.481,32.449A2.183,2.183,0,0,1,10,30.91v.164a2.117,2.117,0,0,0,.513,1.528l.076-.076Z" transform="translate(1428.192 3083.054)" opacity="0.12"/>
      <path id="Path_11807" data-name="Path 11807" d="M32.457,21.419,27,24.507l.1.109,5.359-3.045A1.91,1.91,0,0,0,33.614,20h0A2.03,2.03,0,0,1,32.457,21.419Z" transform="translate(1429.745 3082.057)" opacity="0.12"/>
      <path id="Path_11808" data-name="Path 11808" d="M12.739,7.664,34.01,19.756a2.03,2.03,0,0,1,1.157,1.419h0A1.91,1.91,0,0,0,34.01,19.6L12.739,7.511C11.222,6.638,10,7.358,10,9.1v.164C10,7.522,11.222,6.8,12.739,7.664Z" transform="translate(1428.193 3080.883)" fill="#fff" opacity="0.25"/>
    </g>
  </g>
</svg>
