<svg id="Footer" xmlns="http://www.w3.org/2000/svg" xmlns:xlink="http://www.w3.org/1999/xlink" width="1938" height="491" viewBox="0 0 1938 491">
  <defs>
    <linearGradient id="linear-gradient" x1="0.915" y1="0.619" x2="-0.386" y2="-0.051" gradientUnits="objectBoundingBox">
      <stop offset="0" stop-color="#00a0ff"/>
      <stop offset="0.01" stop-color="#00a1ff"/>
      <stop offset="0.26" stop-color="#00beff"/>
      <stop offset="0.51" stop-color="#00d2ff"/>
      <stop offset="0.76" stop-color="#00dfff"/>
      <stop offset="1" stop-color="#00e3ff"/>
    </linearGradient>
    <linearGradient id="linear-gradient-2" x1="1.077" y1="-0.471" x2="-1.306" y2="-0.471" gradientUnits="objectBoundingBox">
      <stop offset="0" stop-color="#ffe000"/>
      <stop offset="0.41" stop-color="#ffbd00"/>
      <stop offset="0.78" stop-color="orange"/>
      <stop offset="1" stop-color="#ff9c00"/>
    </linearGradient>
    <linearGradient id="linear-gradient-3" x1="0.863" y1="-0.824" x2="-0.502" y2="-2.593" gradientUnits="objectBoundingBox">
      <stop offset="0" stop-color="#ff3a44"/>
      <stop offset="1" stop-color="#c31162"/>
    </linearGradient>
    <linearGradient id="linear-gradient-4" x1="-0.188" y1="1.894" x2="0.421" y2="1.105" gradientUnits="objectBoundingBox">
      <stop offset="0" stop-color="#32a071"/>
      <stop offset="0.07" stop-color="#2da771"/>
      <stop offset="0.48" stop-color="#15cf74"/>
      <stop offset="0.8" stop-color="#06e775"/>
      <stop offset="1" stop-color="#00f076"/>
    </linearGradient>
  </defs>
  <path id="Rectangle_13986" data-name="Rectangle 13986" d="M40,0H1880a40,40,0,0,1,40,40V491a0,0,0,0,1,0,0H0a0,0,0,0,1,0,0V40A40,40,0,0,1,40,0Z" transform="translate(9)" fill="#544092"/>
  <text id="Paragraph" transform="translate(336 240.701)" fill="#fff" font-size="14" font-family="SegoeUI, Segoe UI"><tspan x="0" y="15">The most beautiful exclusive properties and </tspan><tspan x="0" y="43">luxury apartments</tspan></text>
  <g id="Group_9743" data-name="Group 9743" transform="translate(236 -6991.299)">
    <circle id="Ellipse_22" data-name="Ellipse 22" cx="22" cy="22" r="22" transform="translate(265 7324)" fill="#fff"/>
    <g id="Social" transform="translate(134 7336)">
      <path id="_" data-name="" d="M10,20a9.934,9.934,0,0,1-8.64-4.936A10.053,10.053,0,0,1,0,10.012,9.754,9.754,0,0,1,1.36,4.96,9.928,9.928,0,0,1,4.948,1.372,10.137,10.137,0,0,1,10,0V.023A9.937,9.937,0,0,1,18.64,4.96,9.745,9.745,0,0,1,20,10.012a10.043,10.043,0,0,1-1.36,5.052A9.934,9.934,0,0,1,10,20ZM12.845,7.269c.054,0,.081.031.081.091l-.138.205-4.754,4.3v.046l1.554,1.234,2.56,1.943a.822.822,0,0,0,.341.082.612.612,0,0,0,.208-.036.627.627,0,0,0,.3-.206,1.5,1.5,0,0,1,.092-.16L14.869,5.76c0-.182-.069-.29-.206-.32a.534.534,0,0,0-.142-.018,1.035,1.035,0,0,0-.269.041l-.206.068L3.9,9.509a.912.912,0,0,0-.239.172.26.26,0,0,0-.08.239.456.456,0,0,0,.229.32l.205.114,2.515.845L12.583,7.36l.16-.068A.3.3,0,0,1,12.845,7.269Z" transform="translate(143)" fill="#544092"/>
    </g>
  </g>
  <rect id="Rectangle_128" data-name="Rectangle 128" width="1938" height="74" transform="translate(0 417)" fill="#725db4"/>
  <text id="Useful_Links" data-name="Useful Links" transform="translate(813 172)" fill="#fff" font-size="18" font-family="SegoeUI-Bold, Segoe UI" font-weight="700"><tspan x="0" y="0">Useful Links</tspan></text>
  <text id="FAQ_Term_Conditi0on_Policy_Privacy_" data-name="FAQ
Term &amp; Conditi0on
Policy
Privacy
" transform="translate(1045 224)" fill="#fff" font-size="14" font-family="SegoeUI, Segoe UI"><tspan x="0" y="0">FAQ</tspan><tspan x="0" y="41">Term &amp; Conditi0on</tspan><tspan x="0" y="82">Policy</tspan><tspan x="0" y="123">Privacy</tspan><tspan font-family="Montserrat-Regular, Montserrat"><tspan x="0" y="164"></tspan></tspan></text>
  <text id="Help_" data-name="Help?" transform="translate(1045 172)" fill="#fff" font-size="18" font-family="SegoeUI-Bold, Segoe UI" font-weight="700"><tspan x="0" y="0">Help?</tspan></text>
  <text id="Download_the_app" data-name="Download the app" transform="translate(1311 172)" fill="#fff" font-size="18" font-family="SegoeUI-Bold, Segoe UI" font-weight="700"><tspan x="0" y="0">Download the app</tspan></text>
  <text id="About_Partners_Contact" data-name="About
Partners
Contact" transform="translate(813 224)" fill="#fff" font-size="14" font-family="SegoeUI, Segoe UI"><tspan x="0" y="0">About</tspan><tspan x="0" y="41">Partners</tspan><tspan x="0" y="82">Contact</tspan></text>
  <g id="Group_9740" data-name="Group 9740" transform="translate(236 -6991.299)">
    <circle id="Ellipse_19" data-name="Ellipse 19" cx="22" cy="22" r="22" transform="translate(100 7324)" fill="#fff"/>
    <path id="_2" data-name="" d="M9,6.491l-.355,3.52h-2.7V20H1.906V10.011H0V6.491H1.906V4.206A5.079,5.079,0,0,1,2.217,2.4,3.5,3.5,0,0,1,3.436.731,4.162,4.162,0,0,1,5.963,0L8.956.023V3.451H6.783a.842.842,0,0,0-.554.183.978.978,0,0,0-.288.777v2.08Z" transform="translate(118 7336)" fill="#544092"/>
  </g>
  <g id="Group_9741" data-name="Group 9741" transform="translate(236 -6991.299)">
    <circle id="Ellipse_20" data-name="Ellipse 20" cx="22" cy="22" r="22" transform="translate(155 7324)" fill="#725db4"/>
    <path id="_3" data-name="" d="M25,2.363a10.678,10.678,0,0,1-2.568,2.644v.647a14.435,14.435,0,0,1-.942,5.063,15.047,15.047,0,0,1-2.8,4.613,13.854,13.854,0,0,1-4.566,3.376A15.084,15.084,0,0,1,7.877,20a14.811,14.811,0,0,1-4.167-.591A14.286,14.286,0,0,1,0,17.75q.6.056,1.227.056a10.317,10.317,0,0,0,3.4-.563,10.691,10.691,0,0,0,2.968-1.575,5.175,5.175,0,0,1-2.968-1.027,4.876,4.876,0,0,1-1.8-2.489,5.172,5.172,0,0,0,.942.084,5.365,5.365,0,0,0,1.341-.169A5.1,5.1,0,0,1,1.555,9.353,5.218,5.218,0,0,1,1,7.117V7.032a4.87,4.87,0,0,0,2.34.647A5.127,5.127,0,0,1,1.67,5.865,4.895,4.895,0,0,1,1.056,3.46,4.965,4.965,0,0,1,1.741.928,14.576,14.576,0,0,0,6.393,4.641,14.633,14.633,0,0,0,12.3,6.217a5.785,5.785,0,0,1-.114-1.153,4.867,4.867,0,0,1,.685-2.532A5.142,5.142,0,0,1,14.74.689,4.993,4.993,0,0,1,17.295,0a5.1,5.1,0,0,1,2.055.422A5.044,5.044,0,0,1,21.033,1.6,10.057,10.057,0,0,0,24.287.366a4.856,4.856,0,0,1-.87,1.617,5.253,5.253,0,0,1-1.384,1.2A10.531,10.531,0,0,0,25,2.363Z" transform="translate(165 7336)" fill="#fff"/>
  </g>
  <g id="Group_9742" data-name="Group 9742" transform="translate(236 -6991.299)">
    <circle id="Ellipse_21" data-name="Ellipse 21" cx="22" cy="22" r="22" transform="translate(210 7324)" fill="#fff"/>
    <path id="_4" data-name="" d="M3.834,20a3.607,3.607,0,0,1-1.861-.5A4.04,4.04,0,0,1,.539,18.079,3.714,3.714,0,0,1,0,16.136V7.177H5.8a5.033,5.033,0,0,0-.643,4.617A4.922,4.922,0,0,0,7.2,14.353a4.9,4.9,0,0,0,2.075.789,5.093,5.093,0,0,0,.7.047,5.261,5.261,0,0,0,1.49-.219A5.043,5.043,0,0,0,13.395,13.9a4.88,4.88,0,0,0,1.284-1.829,5.159,5.159,0,0,0,.39-2.377,5.541,5.541,0,0,0-.895-2.537h5.8v8.982a3.767,3.767,0,0,1-.527,1.943A3.891,3.891,0,0,1,16.078,20H3.834ZM10,14.011A4.027,4.027,0,0,1,8,13.5,3.9,3.9,0,0,1,6.559,8.149,3.967,3.967,0,0,1,8,6.709a3.879,3.879,0,0,1,1.984-.537,3.817,3.817,0,0,1,1.973.537,4.005,4.005,0,0,1,1.434,1.44A3.892,3.892,0,0,1,11.961,13.5,3.917,3.917,0,0,1,10,14.011ZM9.988,7.2a2.856,2.856,0,0,0-1.456.388A2.919,2.919,0,0,0,7.477,8.64a2.9,2.9,0,0,0,0,2.9,3.014,3.014,0,0,0,1.055,1.063,2.789,2.789,0,0,0,1.456.4,2.85,2.85,0,0,0,1.457-.389A2.914,2.914,0,0,0,12.5,11.565a2.919,2.919,0,0,0,0-2.914,2.9,2.9,0,0,0-1.055-1.063A2.858,2.858,0,0,0,9.988,7.2Zm9.991-.662H13.83a.4.4,0,0,1-.321-.137,5.292,5.292,0,0,0-2.271-1.235,4.98,4.98,0,0,0-2.523.012A5.436,5.436,0,0,0,6.445,6.422a.332.332,0,0,1-.23.114H.138L.022,6.514V5.646c0,.033,0,.044-.007.047S0,5.283,0,4.595A10.184,10.184,0,0,1,.046,3.542,3.718,3.718,0,0,1,1.582.777L1.674.754V4.937h.8V.617A.613.613,0,0,1,2.523.309.866.866,0,0,1,2.844.16L3.05.114V4.937h.826V.023H4.4V4.937h.825V0H16.078a3.753,3.753,0,0,1,1.915.514A4.071,4.071,0,0,1,19.415,1.9a3.658,3.658,0,0,1,.563,1.874c.015.367.022.816.022,1.372l-.007.477c-.008.547-.012.816-.014.917ZM16.485,1.657c-.341,0-.692,0-1.073.012a.581.581,0,0,0-.458.183.7.7,0,0,0-.161.48v2.1a.635.635,0,0,0,.172.468.611.611,0,0,0,.447.172h2.111a.594.594,0,0,0,.642-.64V2.309a.634.634,0,0,0-.172-.469.607.607,0,0,0-.447-.171C17.173,1.661,16.826,1.657,16.485,1.657Z" transform="translate(222 7336)" fill="#544092"/>
  </g>
  <text id="Copyright" transform="translate(519 461)" fill="#fff" font-size="14" font-family="SegoeUI, Segoe UI"><tspan x="-183.49" y="0">© Copyright 2021,SAWATECH</tspan></text>
  <text id="Copyright-2" data-name="Copyright" transform="translate(1519 461)" fill="#fff" font-size="14" font-family="SegoeUI, Segoe UI"><tspan x="-228.464" y="0" xml:space="preserve">Terms &amp; Condition    |   Privacy Policy</tspan></text>
  <rect id="Rectangle_13987" data-name="Rectangle 13987" width="66" height="5" rx="2.5" transform="translate(813 187)" fill="#fff"/>
  <rect id="Rectangle_13988" data-name="Rectangle 13988" width="66" height="5" rx="2.5" transform="translate(1045 187)" fill="#fff"/>
  <rect id="Rectangle_13989" data-name="Rectangle 13989" width="66" height="5" rx="2.5" transform="translate(1311 185)" fill="#fff"/>
  <rect id="Rectangle_13990" data-name="Rectangle 13990" width="68" height="5" rx="2.5" transform="translate(336 226)" fill="#fff"/>
  <g id="Group_11495" data-name="Group 11495" transform="translate(1171 -5726.5)">
    <g id="Page-1" transform="translate(140 5972)">
      <g id="Artboard-1">
        <g id="App-Store">
          <path id="background" d="M4.28,0H123.7a5.284,5.284,0,0,1,5.28,5.28V38.72A5.284,5.284,0,0,1,123.7,44H4.28A5.284,5.284,0,0,1-1,38.72V5.28A5.284,5.284,0,0,1,4.28,0Z" transform="translate(1)" fill="#fff"/>
          <g id="icon" transform="translate(11.526 7.744)">
            <path id="Fill-2" d="M16.9,75.511a5.674,5.674,0,0,1,2.693-4.752,5.836,5.836,0,0,0-4.567-2.473c-1.918-.2-3.784,1.153-4.761,1.153-.994,0-2.508-1.126-4.127-1.1a6.068,6.068,0,0,0-5.113,3.124c-2.209,3.828-.563,9.46,1.558,12.558,1.065,1.514,2.3,3.212,3.925,3.15,1.584-.062,2.182-1.012,4.092-1.012s2.455,1.012,4.11.977c1.707-.026,2.772-1.522,3.8-3.054a12.413,12.413,0,0,0,1.734-3.538A5.488,5.488,0,0,1,16.9,75.511" transform="translate(0.023 -62.258)"/>
            <path id="Fill-3" d="M118.122,4A5.583,5.583,0,0,0,119.4,0a5.661,5.661,0,0,0-3.67,1.9,5.354,5.354,0,0,0-1.311,3.846A4.69,4.69,0,0,0,118.122,4" transform="translate(-104.322)"/>
          </g>
          <g id="Group_11401" data-name="Group 11401" transform="translate(40.471 19.254)">
            <path id="Fill-4" d="M10.865,15.9H8.647L7.433,12.078H3.209L2.056,15.9H-.1l4.18-13H6.667l4.2,13ZM7.072,10.477l-1.1-3.388c-.114-.352-.334-1.162-.651-2.446H5.277c-.132.554-.334,1.373-.616,2.446L3.578,10.477Z" transform="translate(0.1 -2.715)"/>
            <path id="Fill-5" d="M153.029,46.67a5.279,5.279,0,0,1-1.3,3.775,3.794,3.794,0,0,1-2.886,1.232,2.891,2.891,0,0,1-2.675-1.329v4.919h-2.086V45.174c0-1-.026-2.024-.079-3.08h1.83l.114,1.487h.035a3.7,3.7,0,0,1,5.922-.37A5.1,5.1,0,0,1,153.029,46.67Zm-2.121.07a3.826,3.826,0,0,0-.616-2.253,2.133,2.133,0,0,0-1.813-.924,2.212,2.212,0,0,0-1.4.51,2.357,2.357,0,0,0-.818,1.338,2.849,2.849,0,0,0-.1.634v1.566a2.519,2.519,0,0,0,.625,1.725,2.079,2.079,0,0,0,1.628.7,2.148,2.148,0,0,0,1.83-.906A3.975,3.975,0,0,0,150.908,46.74Z" transform="translate(-131.319 -38.283)"/>
            <path id="Fill-6" d="M275.429,46.67a5.278,5.278,0,0,1-1.3,3.775,3.794,3.794,0,0,1-2.886,1.232,2.89,2.89,0,0,1-2.675-1.329v4.919h-2.086V45.174c0-1-.026-2.024-.079-3.08h1.83l.114,1.487h.035a3.7,3.7,0,0,1,5.922-.37A5.1,5.1,0,0,1,275.429,46.67Zm-2.121.07a3.826,3.826,0,0,0-.616-2.253,2.133,2.133,0,0,0-1.813-.924,2.211,2.211,0,0,0-1.4.51,2.4,2.4,0,0,0-.818,1.338,2.85,2.85,0,0,0-.1.634v1.566a2.52,2.52,0,0,0,.625,1.725,2.079,2.079,0,0,0,1.628.7,2.137,2.137,0,0,0,1.83-.906A3.916,3.916,0,0,0,273.308,46.74Z" transform="translate(-242.948 -38.283)"/>
            <path id="Fill-7" d="M422.552,10.339a3.48,3.48,0,0,1-1.153,2.7,5.117,5.117,0,0,1-3.538,1.135,6.19,6.19,0,0,1-3.362-.81l.484-1.734a5.845,5.845,0,0,0,3.01.81,2.834,2.834,0,0,0,1.83-.528,1.725,1.725,0,0,0,.66-1.417,1.833,1.833,0,0,0-.537-1.329,5.024,5.024,0,0,0-1.8-1c-2.3-.854-3.432-2.094-3.432-3.722a3.3,3.3,0,0,1,1.206-2.622A4.782,4.782,0,0,1,419.12.8a6.28,6.28,0,0,1,2.948.616l-.528,1.69a5.194,5.194,0,0,0-2.5-.6,2.593,2.593,0,0,0-1.725.537,1.561,1.561,0,0,0-.519,1.179,1.58,1.58,0,0,0,.6,1.267,6.714,6.714,0,0,0,1.892,1,6.344,6.344,0,0,1,2.464,1.584,3.293,3.293,0,0,1,.8,2.262" transform="translate(-378.015 -0.8)"/>
            <path id="Fill-8" d="M525.3,21.5h-2.3v4.55c0,1.153.4,1.734,1.214,1.734a3.862,3.862,0,0,0,.924-.1l.062,1.584a4.829,4.829,0,0,1-1.619.229,2.492,2.492,0,0,1-1.927-.757,3.673,3.673,0,0,1-.7-2.526V21.49H519.6V19.932h1.364V18.216l2.042-.616v2.332h2.3V21.5" transform="translate(-473.866 -16.122)"/>
            <path id="Fill-9" d="M606.678,46.8a5.147,5.147,0,0,1-1.232,3.546,4.41,4.41,0,0,1-3.432,1.426,4.224,4.224,0,0,1-3.291-1.364,4.955,4.955,0,0,1-1.223-3.45,5.111,5.111,0,0,1,1.258-3.564A4.392,4.392,0,0,1,602.164,42a4.283,4.283,0,0,1,3.318,1.373A4.892,4.892,0,0,1,606.678,46.8Zm-2.156.044a4.2,4.2,0,0,0-.554-2.209,2.16,2.16,0,0,0-3.784,0,4.765,4.765,0,0,0,0,4.462,2.137,2.137,0,0,0,3.766-.018A4.263,4.263,0,0,0,604.522,46.84Z" transform="translate(-544.911 -38.374)"/>
            <path id="Fill-10" d="M726.725,43.924a3.858,3.858,0,0,0-.66-.053,1.965,1.965,0,0,0-1.7.827,3.139,3.139,0,0,0-.519,1.848v4.919h-2.086V45.042c0-1.082-.018-2.068-.062-2.948h1.813l.079,1.8h.062a3.194,3.194,0,0,1,1.038-1.487,2.533,2.533,0,0,1,1.5-.5,4.38,4.38,0,0,1,.519.035l.009,1.989" transform="translate(-658.182 -38.283)"/>
            <path id="Fill-11" d="M798.234,46.062a4.761,4.761,0,0,1-.079.942h-6.248a2.717,2.717,0,0,0,.906,2.121,3.12,3.12,0,0,0,2.042.651,7.01,7.01,0,0,0,2.526-.44l.326,1.443a7.82,7.82,0,0,1-3.142.581,4.552,4.552,0,0,1-3.423-1.285,4.744,4.744,0,0,1-1.241-3.441,5.377,5.377,0,0,1,1.162-3.529,3.987,3.987,0,0,1,3.274-1.5,3.478,3.478,0,0,1,3.062,1.5,5.09,5.09,0,0,1,.836,2.957Zm-1.989-.537a2.806,2.806,0,0,0-.4-1.6,1.817,1.817,0,0,0-1.654-.871,1.978,1.978,0,0,0-1.654.845,3.131,3.131,0,0,0-.616,1.619Z" transform="translate(-720.38 -38.01)"/>
          </g>
          <g id="Available-on-the" transform="translate(41.246 8.07)">
            <path id="Fill-12" d="M5.094,10.889H4L3.4,9.014H1.328L.756,10.889H-.3L1.75,4.5H3.018ZM3.22,8.222,2.683,6.55c-.053-.167-.158-.572-.326-1.206H2.34c-.07.273-.158.669-.308,1.206L1.5,8.222Z" transform="translate(0.3 -4.166)"/>
            <path id="Fill-13" d="M73.526,24.7l-1.742,4.611H70.79L69.1,24.7h1.1l.783,2.438c.132.4.246.792.334,1.162h.026c.079-.334.194-.722.334-1.162l.774-2.438h1.074" transform="translate(-62.993 -22.588)"/>
            <path id="Fill-14" d="M131.96,28.49l-.079-.528h-.026a1.584,1.584,0,0,1-1.346.634,1.337,1.337,0,0,1-1.408-1.355c0-1.135.986-1.725,2.693-1.725v-.088c0-.607-.326-.906-.959-.906a2.149,2.149,0,0,0-1.206.343l-.211-.669A2.958,2.958,0,0,1,131,23.8c1.206,0,1.813.634,1.813,1.91v1.7a6.134,6.134,0,0,0,.07,1.1Zm-.141-2.3c-1.135,0-1.707.273-1.707.933a.653.653,0,0,0,.7.722.979.979,0,0,0,1-.942Z" transform="translate(-117.713 -21.767)"/>
            <path id="Fill-15" d="M190.907,3.423a.612.612,0,1,1,.642-.616A.6.6,0,0,1,190.907,3.423Zm-.493.757h1.021v4.6h-1.021Z" transform="translate(-173.527 -2.068)"/>
            <path id="Fill-16" d="M223.9.7h1.021V7.414H223.9Z" transform="translate(-204.17 -0.7)"/>
            <path id="Fill-17" d="M255.26,28.4l-.079-.528h-.026a1.584,1.584,0,0,1-1.346.634A1.337,1.337,0,0,1,252.4,27.15c0-1.135.986-1.725,2.693-1.725v-.088c0-.607-.326-.906-.959-.906a2.149,2.149,0,0,0-1.206.343l-.211-.678a2.958,2.958,0,0,1,1.584-.4c1.206,0,1.813.634,1.813,1.91v1.7a7.283,7.283,0,0,0,.062,1.1h-.915Zm-.141-2.3c-1.135,0-1.707.273-1.707.933a.653.653,0,0,0,.7.722.979.979,0,0,0,1-.942Z" transform="translate(-230.162 -21.676)"/>
            <path id="Fill-18" d="M316.9,7.529a1.568,1.568,0,0,1-1.452-.818h-.018l-.062.713H314.5c.026-.37.035-.783.035-1.241V.7h1.03V3.49h.018a1.583,1.583,0,0,1,1.47-.766c1.109,0,1.883.95,1.883,2.332A2.218,2.218,0,0,1,316.9,7.529Zm-.211-4a1.175,1.175,0,0,0-1.126,1.223v.81a1.125,1.125,0,0,0,1.109,1.153c.766,0,1.223-.625,1.223-1.619,0-.933-.475-1.566-1.206-1.566Z" transform="translate(-286.798 -0.7)"/>
            <path id="Fill-19" d="M382.1.7h1.021V7.414H382.1Z" transform="translate(-348.449 -0.7)"/>
            <path id="Fill-20" d="M414.957,26.158h-3.071a1.322,1.322,0,0,0,1.452,1.364,3.461,3.461,0,0,0,1.241-.22l.158.713a3.732,3.732,0,0,1-1.54.282,2.138,2.138,0,0,1-2.3-2.323,2.25,2.25,0,0,1,2.182-2.473A1.94,1.94,0,0,1,415,25.691a1.783,1.783,0,0,1-.044.466Zm-.933-.73c0-.713-.361-1.214-1.012-1.214a1.214,1.214,0,0,0-1.118,1.214Z" transform="translate(-374.714 -21.494)"/>
            <path id="Fill-21" d="M504.518,28.5a2.19,2.19,0,0,1-2.218-2.367,2.242,2.242,0,0,1,2.3-2.438,2.174,2.174,0,0,1,2.218,2.358A2.259,2.259,0,0,1,504.518,28.5Zm.044-4.057c-.739,0-1.214.7-1.214,1.654s.484,1.637,1.206,1.637,1.206-.739,1.206-1.663S505.283,24.448,504.562,24.448Z" transform="translate(-458.071 -21.676)"/>
            <path id="Fill-22" d="M574.331,28.308H573.31V25.659c0-.818-.317-1.223-.933-1.223a1.059,1.059,0,0,0-1.021,1.126V28.3h-1.021V25.017c0-.4-.009-.845-.035-1.32h.9l.044.713h.026a1.657,1.657,0,0,1,1.461-.81c.968,0,1.6.739,1.6,1.945v2.763" transform="translate(-520.087 -21.585)"/>
            <path id="Fill-23" d="M663.29,13.618h-1.126v2.235c0,.572.2.854.6.854a2.238,2.238,0,0,0,.458-.044l.026.774a2.218,2.218,0,0,1-.792.114c-.81,0-1.285-.449-1.285-1.61V13.618H660.5v-.766h.669v-.845l1-.308v1.144H663.3v.774" transform="translate(-602.35 -10.732)"/>
            <path id="Fill-24" d="M712.4,7.423h-1.021V4.792c0-.827-.317-1.241-.933-1.241a1,1,0,0,0-1.021,1.091V7.414H708.4V.7h1.021V3.463h.018a1.548,1.548,0,0,1,1.382-.748c.977,0,1.575.757,1.575,1.962V7.423" transform="translate(-646.035 -0.7)"/>
            <path id="Fill-25" d="M771.157,26.158h-3.071a1.322,1.322,0,0,0,1.452,1.364,3.462,3.462,0,0,0,1.241-.22l.158.713a3.732,3.732,0,0,1-1.54.282,2.138,2.138,0,0,1-2.3-2.323,2.25,2.25,0,0,1,2.182-2.473,1.94,1.94,0,0,1,1.918,2.191A1.783,1.783,0,0,1,771.157,26.158Zm-.933-.73c0-.713-.361-1.214-1.012-1.214a1.207,1.207,0,0,0-1.118,1.214Z" transform="translate(-699.569 -21.494)"/>
          </g>
        </g>
      </g>
    </g>
    <g id="Group_11403" data-name="Group 11403" transform="translate(-1150.024 2892.116)">
      <rect id="Rectangle_13912" data-name="Rectangle 13912" width="148" height="44" rx="5" transform="translate(1427 3079.884)" fill="#fff"/>
      <g id="Group_11405" data-name="Group 11405">
        <path id="Path_11793" data-name="Path 11793" d="M47.975,10.548a2.968,2.968,0,0,1-.819,2.183,3.165,3.165,0,0,1-2.4.96,3.373,3.373,0,0,1-3.4-3.4,3.274,3.274,0,0,1,.993-2.434A3.449,3.449,0,0,1,46.1,7.143a2.772,2.772,0,0,1,1.026.731l-.578.578a2.183,2.183,0,0,0-1.79-.786,2.532,2.532,0,0,0-2.543,2.619,2.576,2.576,0,0,0,4.365,1.888,2.106,2.106,0,0,0,.557-1.331H44.755v-.786h3.176A4.091,4.091,0,0,1,47.975,10.548Z" transform="translate(1431.056 3080.858)" fill="#0c0c0c"/>
        <path id="Path_11794" data-name="Path 11794" d="M52.318,7.808H49.371V9.881h2.685v.786H49.371V12.74h2.947v.808h-3.8V7h3.8Z" transform="translate(1431.711 3080.87)" fill="#0c0c0c"/>
        <path id="Path_11795" data-name="Path 11795" d="M55.5,13.548h-.84V7.808H52.83V7h4.551v.808H55.5Z" transform="translate(1432.105 3080.87)" fill="#0c0c0c"/>
        <path id="Path_11796" data-name="Path 11796" d="M59.94,13.548V7h.84v6.548Z" transform="translate(1432.754 3080.87)" fill="#0c0c0c"/>
        <path id="Path_11797" data-name="Path 11797" d="M64.354,13.548h-.84V7.808H61.68V7h4.5v.808H64.354Z" transform="translate(1432.913 3080.87)" fill="#0c0c0c"/>
        <path id="Path_11798" data-name="Path 11798" d="M74.092,12.709a3.394,3.394,0,0,1-4.8,0,3.274,3.274,0,0,1-.96-2.423,3.274,3.274,0,0,1,.96-2.423,3.2,3.2,0,0,1,2.4-.993,3.274,3.274,0,0,1,2.4.993,3.35,3.35,0,0,1,.96,2.423,3.274,3.274,0,0,1-.96,2.423Zm-4.18-.546a2.5,2.5,0,0,0,3.558,0,2.576,2.576,0,0,0,.731-1.877,2.576,2.576,0,0,0-.775-1.877,2.5,2.5,0,0,0-3.558,0,2.576,2.576,0,0,0-.688,1.877,2.576,2.576,0,0,0,.731,1.877Z" transform="translate(1433.521 3080.858)" fill="#0c0c0c"/>
        <path id="Path_11799" data-name="Path 11799" d="M75.58,13.548V7h1.015l3.187,5.1h0V7h.84v6.548h-.873L76.42,8.211h0v5.337Z" transform="translate(1434.183 3080.87)" fill="#0c0c0c"/>
      </g>
      <path id="Path_11800" data-name="Path 11800" d="M70.631,22.18a4.649,4.649,0,1,0,4.66,4.638,4.573,4.573,0,0,0-4.66-4.638Zm0,7.454a2.816,2.816,0,1,1,2.619-2.816,2.685,2.685,0,0,1-2.619,2.816ZM60.459,22.18a4.649,4.649,0,1,0,4.66,4.638,4.573,4.573,0,0,0-4.66-4.638Zm0,7.454a2.816,2.816,0,1,1,2.619-2.816,2.685,2.685,0,0,1-2.619,2.816ZM48.367,23.609v1.964h4.715a4.114,4.114,0,0,1-1.091,2.477,4.824,4.824,0,0,1-3.645,1.441,5.238,5.238,0,0,1,0-10.477,5.064,5.064,0,0,1,3.58,1.408l1.386-1.386a6.875,6.875,0,0,0-4.944-1.986,7.214,7.214,0,1,0,0,14.417A6.624,6.624,0,0,0,53.4,29.448a6.548,6.548,0,0,0,1.7-4.616,6.843,6.843,0,0,0-.1-1.222Zm49.449,1.528a4.288,4.288,0,0,0-8.338,1.681A4.616,4.616,0,0,0,97.947,29.4l-1.582-1.091a2.63,2.63,0,0,1-2.281,1.277,2.346,2.346,0,0,1-2.248-1.408l6.21-2.565Zm-6.33,1.55a2.543,2.543,0,0,1,2.434-2.707,1.79,1.79,0,0,1,1.713.982Zm-5.042,4.5h2.041V17.542H86.444ZM83.1,23.217h-.076a3.209,3.209,0,0,0-2.445-1.037,4.649,4.649,0,0,0,0,9.287,3.143,3.143,0,0,0,2.445-1.091H83.1v.666c0,1.779-.949,2.728-2.477,2.728a2.576,2.576,0,0,1-2.346-1.648l-1.768.731a4.365,4.365,0,0,0,4.114,2.75c2.39,0,4.365-1.408,4.365-4.835V22.453H83.1Zm-2.346,6.417a2.816,2.816,0,0,1,0-5.62,2.608,2.608,0,0,1,2.488,2.8,2.6,2.6,0,0,1-2.488,2.816Zm26.618-12.092h-4.889V31.183h2.041V26.01h2.848a4.245,4.245,0,1,0,0-8.469Zm0,6.548h-2.848V19.441h2.892a2.335,2.335,0,1,1,0,4.671Zm12.594-1.954a3.809,3.809,0,0,0-3.634,2.084l1.8.753A1.943,1.943,0,0,1,120,23.981a1.964,1.964,0,0,1,2.183,1.757v.131a4.562,4.562,0,0,0-2.128-.524c-1.943,0-3.929,1.091-3.929,3.078a3.154,3.154,0,0,0,3.394,3,2.892,2.892,0,0,0,2.6-1.331h.065v1.091h1.964V25.934c0-2.39-1.812-3.776-4.136-3.776Zm-.251,7.476c-.666,0-1.593-.338-1.593-1.157,0-1.091,1.157-1.462,2.183-1.462a3.623,3.623,0,0,1,1.855.458,2.466,2.466,0,0,1-2.4,2.183Zm11.59-7.159-2.335,5.915h-.065l-2.423-5.915H124.3l3.634,8.272-2.074,4.595h2.183l5.533-12.867Zm-18.335,8.731H115V17.542h-2.03Z" transform="translate(1431.013 3081.788)" fill="#0c0c0c"/>
      <path id="Path_11801" data-name="Path 11801" d="M10.481,7.546A2.183,2.183,0,0,0,10,9.074V33.215a2.117,2.117,0,0,0,.513,1.528l.076.087L24.079,21.308v-.327L10.557,7.47Z" transform="translate(1428.192 3080.913)" fill="url(#linear-gradient)"/>
      <path id="Path_11802" data-name="Path 11802" d="M27.375,25.062,22.9,20.555v-.327l4.475-4.507.1.065,5.359,3.034c1.528.862,1.528,2.281,0,3.154l-5.337,3.034Z" transform="translate(1429.371 3081.666)" fill="url(#linear-gradient-2)"/>
      <path id="Path_11803" data-name="Path 11803" d="M28.644,24.616,24.038,20,10.44,33.6a1.768,1.768,0,0,0,2.259.076l15.945-9.058" transform="translate(1428.233 3082.057)" fill="url(#linear-gradient-3)"/>
      <path id="Path_11804" data-name="Path 11804" d="M28.644,16.57,12.7,7.512a1.757,1.757,0,0,0-2.259.065l13.6,13.6Z" transform="translate(1428.233 3080.882)" fill="url(#linear-gradient-4)"/>
      <path id="Path_11805" data-name="Path 11805" d="M28.513,24.13l-15.814,9a1.812,1.812,0,0,1-2.183,0h0l-.076.076h0l.076.087h0a1.812,1.812,0,0,0,2.183,0l15.945-9.058Z" transform="translate(1428.233 3082.435)" opacity="0.2"/>
      <path id="Path_11806" data-name="Path 11806" d="M10.481,32.449A2.183,2.183,0,0,1,10,30.91v.164a2.117,2.117,0,0,0,.513,1.528l.076-.076Z" transform="translate(1428.192 3083.054)" opacity="0.12"/>
      <path id="Path_11807" data-name="Path 11807" d="M32.457,21.419,27,24.507l.1.109,5.359-3.045A1.91,1.91,0,0,0,33.614,20h0A2.03,2.03,0,0,1,32.457,21.419Z" transform="translate(1429.745 3082.057)" opacity="0.12"/>
      <path id="Path_11808" data-name="Path 11808" d="M12.739,7.664,34.01,19.756a2.03,2.03,0,0,1,1.157,1.419h0A1.91,1.91,0,0,0,34.01,19.6L12.739,7.511C11.222,6.638,10,7.358,10,9.1v.164C10,7.522,11.222,6.8,12.739,7.664Z" transform="translate(1428.193 3080.883)" fill="#fff" opacity="0.25"/>
    </g>
  </g>
  <g id="Group_37885" data-name="Group 37885" transform="translate(13965.043 8758.865)">
    <path id="Path_30257" data-name="Path 30257" d="M260.129,120.242l4.093,10.147h11.842v37.217h10.148V130.389h14.521V120.242Z" transform="translate(-13708.227 -8717.473)" fill="#fff"/>
    <path id="Path_30258" data-name="Path 30258" d="M323.331,120.242v47.365h37.152V157.458h-27V149h27V138.846h-27v-8.457h27V120.242Z" transform="translate(-13726.695 -8717.473)" fill="#fff"/>
    <path id="Path_30259" data-name="Path 30259" d="M381.676,120.242v47.364h37.132V157.458H391.83V130.39h26.977V120.242Z" transform="translate(-13743.744 -8717.473)" fill="#fff"/>
    <path id="Path_30260" data-name="Path 30260" d="M470.327,120.242v18.606H450.018V120.242H439.87v47.365h10.148V149h20.309v18.605h10.147V120.242Z" transform="translate(-13760.75 -8717.473)" fill="#fff"/>
    <path id="Path_30261" data-name="Path 30261" d="M227.584,138.847,230,132.783l2.426,6.064L236.482,149H223.526Zm-4.084-18.6-4.051,10.147-3.38,8.457L212.011,149l-3.375,8.457-4.058,10.148H216.1l4.051-10.148h19.716l4.051,10.148h11.509l-4.051-10.148L247.992,149l-4.051-10.155-3.38-8.457-4.051-10.147Z" transform="translate(-13691.994 -8717.472)" fill="#fff"/>
    <path id="Path_30262" data-name="Path 30262" d="M4.478,120.242V149H34.9v8.457H4.478v10.148H45.05v-28.76H14.633v-8.457H45.05V120.242Z" transform="translate(-13633.521 -8717.473)" fill="#fff"/>
    <path id="Path_30263" data-name="Path 30263" d="M87.651,138.847l2.42-6.064,2.427,6.064L96.556,149H83.594Zm-4.078-18.6-4.058,10.147-3.374,8.457L72.084,149,68.7,157.459l-4.051,10.148h11.51l4.051-10.148H99.936l4.051,10.148H115.5l-4.051-10.148L108.065,149l-4.058-10.155-3.38-8.457-4.051-10.147Z" transform="translate(-13651.104 -8717.472)" fill="#fff"/>
    <path id="Path_30264" data-name="Path 30264" d="M179.971,120.242l-4.05,10.147-3.38,8.458L168.482,149l-2.42,6.071L163.635,149l-2.019-5.063,2.032-5.09,3.375-8.458,4.058-10.147H159.564l-3.709,9.286-3.7-9.286H140.637l4.05,10.147,3.38,8.458,2.033,5.09L148.074,149l-2.407,6.037L143.254,149,139.2,138.847l-3.38-8.458-4.051-10.147h-11.51l4.051,10.147,3.381,8.458L131.745,149l3.38,8.458,4.051,10.148h12.982l3.7-9.26,3.7,9.26h13l4.058-10.148L179.991,149l4.058-10.154,3.38-8.458,4.051-10.147Z" transform="translate(-13667.354 -8717.473)" fill="#fff"/>
  </g>
  <g id="Group_37705" data-name="Group 37705" transform="translate(13965.043 8764.376)">
    <path id="Path_30257-2" data-name="Path 30257" d="M260.129,120.242l4.093,10.147h11.842v37.217h10.148V130.389h14.521V120.242Z" transform="translate(-13708.227 -8717.473)" fill="#fff"/>
    <path id="Path_30258-2" data-name="Path 30258" d="M323.331,120.242v47.365h37.152V157.458h-27V149h27V138.846h-27v-8.457h27V120.242Z" transform="translate(-13726.695 -8717.473)" fill="#fff"/>
    <path id="Path_30259-2" data-name="Path 30259" d="M381.676,120.242v47.364h37.132V157.458H391.83V130.39h26.977V120.242Z" transform="translate(-13743.744 -8717.473)" fill="#fff"/>
    <path id="Path_30260-2" data-name="Path 30260" d="M470.327,120.242v18.606H450.018V120.242H439.87v47.365h10.148V149h20.309v18.605h10.147V120.242Z" transform="translate(-13760.75 -8717.473)" fill="#fff"/>
    <path id="Path_30261-2" data-name="Path 30261" d="M227.584,138.847,230,132.783l2.426,6.064L236.482,149H223.526Zm-4.084-18.6-4.051,10.147-3.38,8.457L212.011,149l-3.375,8.457-4.058,10.148H216.1l4.051-10.148h19.716l4.051,10.148h11.509l-4.051-10.148L247.992,149l-4.051-10.155-3.38-8.457-4.051-10.147Z" transform="translate(-13691.994 -8717.472)" fill="#fff"/>
    <path id="Path_30262-2" data-name="Path 30262" d="M4.478,120.242V149H34.9v8.457H4.478v10.148H45.05v-28.76H14.633v-8.457H45.05V120.242Z" transform="translate(-13633.521 -8717.473)" fill="#fff"/>
    <path id="Path_30263-2" data-name="Path 30263" d="M87.651,138.847l2.42-6.064,2.427,6.064L96.556,149H83.594Zm-4.078-18.6-4.058,10.147-3.374,8.457L72.084,149,68.7,157.459l-4.051,10.148h11.51l4.051-10.148H99.936l4.051,10.148H115.5l-4.051-10.148L108.065,149l-4.058-10.155-3.38-8.457-4.051-10.147Z" transform="translate(-13651.104 -8717.472)" fill="#fff"/>
    <path id="Path_30264-2" data-name="Path 30264" d="M179.971,120.242l-4.05,10.147-3.38,8.458L168.482,149l-2.42,6.071L163.635,149l-2.019-5.063,2.032-5.09,3.375-8.458,4.058-10.147H159.564l-3.709,9.286-3.7-9.286H140.637l4.05,10.147,3.38,8.458,2.033,5.09L148.074,149l-2.407,6.037L143.254,149,139.2,138.847l-3.38-8.458-4.051-10.147h-11.51l4.051,10.147,3.381,8.458L131.745,149l3.38,8.458,4.051,10.148h12.982l3.7-9.26,3.7,9.26h13l4.058-10.148L179.991,149l4.058-10.154,3.38-8.458,4.051-10.147Z" transform="translate(-13667.354 -8717.473)" fill="#fff"/>
  </g>
</svg>
