<svg xmlns="http://www.w3.org/2000/svg" width="348.768" height="47.366" viewBox="0 0 348.768 47.366">
  <g id="Group_37705" data-name="Group 37705" transform="translate(13629.043 8597.231)">
    <path id="Path_30257" data-name="Path 30257" d="M260.129,120.242l4.093,10.147h11.842v37.217h10.148V130.389h14.521V120.242Z" transform="translate(-13708.227 -8717.473)" fill="#fff"/>
    <path id="Path_30258" data-name="Path 30258" d="M323.331,120.242v47.365h37.152V157.458h-27V149h27V138.846h-27v-8.457h27V120.242Z" transform="translate(-13726.695 -8717.473)" fill="#fff"/>
    <path id="Path_30259" data-name="Path 30259" d="M381.676,120.242v47.364h37.132V157.458H391.83V130.39h26.977V120.242Z" transform="translate(-13743.744 -8717.473)" fill="#fff"/>
    <path id="Path_30260" data-name="Path 30260" d="M470.327,120.242v18.606H450.018V120.242H439.87v47.365h10.148V149h20.309v18.605h10.147V120.242Z" transform="translate(-13760.75 -8717.473)" fill="#fff"/>
    <path id="Path_30261" data-name="Path 30261" d="M227.584,138.847,230,132.783l2.426,6.064L236.482,149H223.526Zm-4.084-18.6-4.051,10.147-3.38,8.457L212.011,149l-3.375,8.457-4.058,10.148H216.1l4.051-10.148h19.716l4.051,10.148h11.509l-4.051-10.148L247.992,149l-4.051-10.155-3.38-8.457-4.051-10.147Z" transform="translate(-13691.994 -8717.472)" fill="#fff"/>
    <path id="Path_30262" data-name="Path 30262" d="M4.478,120.242V149H34.9v8.457H4.478v10.148H45.05v-28.76H14.633v-8.457H45.05V120.242Z" transform="translate(-13633.521 -8717.473)" fill="#fff"/>
    <path id="Path_30263" data-name="Path 30263" d="M87.651,138.847l2.42-6.064,2.427,6.064L96.556,149H83.594Zm-4.078-18.6-4.058,10.147-3.374,8.457L72.084,149,68.7,157.459l-4.051,10.148h11.51l4.051-10.148H99.936l4.051,10.148H115.5l-4.051-10.148L108.065,149l-4.058-10.155-3.38-8.457-4.051-10.147Z" transform="translate(-13651.104 -8717.472)" fill="#fff"/>
    <path id="Path_30264" data-name="Path 30264" d="M179.971,120.242l-4.05,10.147-3.38,8.458L168.482,149l-2.42,6.071L163.635,149l-2.019-5.063,2.032-5.09,3.375-8.458,4.058-10.147H159.564l-3.709,9.286-3.7-9.286H140.637l4.05,10.147,3.38,8.458,2.033,5.09L148.074,149l-2.407,6.037L143.254,149,139.2,138.847l-3.38-8.458-4.051-10.147h-11.51l4.051,10.147,3.381,8.458L131.745,149l3.38,8.458,4.051,10.148h12.982l3.7-9.26,3.7,9.26h13l4.058-10.148L179.991,149l4.058-10.154,3.38-8.458,4.051-10.147Z" transform="translate(-13667.354 -8717.473)" fill="#fff"/>
  </g>
</svg>
