<svg xmlns="http://www.w3.org/2000/svg" width="33.665" height="32.651" viewBox="0 0 33.665 32.651">
  <g id="Group_16377" data-name="Group 16377" transform="translate(-1105.335 -376)">
    <g id="rent-sign-svgrepo-com" transform="translate(1105.335 376)">
      <g id="Group_9762" data-name="Group 9762" transform="translate(0 0)">
        <path id="Path_2985" data-name="Path 2985" d="M38.759,168.806H37v2.022h1.709c.646,0,1.292-.167,1.292-1.01C40,169.015,39.51,168.806,38.759,168.806Z" transform="translate(-32.628 -148.867)" fill="#544092"/>
        <path id="Path_2986" data-name="Path 2986" d="M32.863,31.484h-3.7l-10.427-10.1a2.463,2.463,0,0,0,.1-.661,2.128,2.128,0,0,0-2-2.233,2.128,2.128,0,0,0-2,2.233,2.468,2.468,0,0,0,.1.661L4.5,31.484H.8a.852.852,0,0,0-.8.894V50.243a.852.852,0,0,0,.8.894H32.863a.852.852,0,0,0,.8-.894V32.378A.852.852,0,0,0,32.863,31.484ZM15.977,22.732a1.767,1.767,0,0,0,1.71,0l9.034,8.752H6.943ZM8.82,42.861a12.557,12.557,0,0,0,.228,1.719.784.784,0,0,1-.8.744c-.938,0-1.011-1.01-1.011-1.347,0-1.464-.239-2.055-1.177-2.055H4.37v2.451a.859.859,0,1,1-1.709,0V37.926c0-.848.4-1.115,1-1.115H6.507c2.031,0,2.573,1.243,2.573,2.323a1.99,1.99,0,0,1-1.291,2.009v.023C8.664,41.3,8.82,42.013,8.82,42.861Zm6.7,2.312h-4.1c-.6,0-1-.267-1-1.115V37.926c0-.848.4-1.115,1-1.115h4.012c.5,0,.865.163.865.767s-.365.767-.865.767h-3.3v1.812h2.9c.449,0,.8.139.8.732s-.354.732-.8.732h-2.9v2.02H15.52c.5,0,.865.162.865.767S16.02,45.173,15.52,45.173Zm8.556-1.034c0,.755-.292,1.185-1.011,1.185a.863.863,0,0,1-.938-.511l-2.97-5.226h-.021v4.819c0,.615-.312.917-.823.917s-.823-.3-.823-.917V37.775c0-.79.344-1.115,1.073-1.115a.919.919,0,0,1,.854.5l2.991,5.377h.02V37.577c0-.616.313-.917.824-.917s.823.3.823.917v6.561Zm6.71-5.725H29.171v5.957a.86.86,0,1,1-1.709,0V38.414H25.846a.806.806,0,1,1,0-1.6h4.94a.806.806,0,1,1,0,1.6Z" transform="translate(0 -18.486)" fill="#544092"/>
      </g>
    </g>
  </g>
</svg>
